<svg width="138" height="40" viewBox="0 0 138 40" fill="none" xmlns="http://www.w3.org/2000/svg">
<path d="M1 20C1 30.4934 9.50659 39 20 39C30.4934 39 39 30.4934 39 20C39 9.50659 30.4934 1 20 1" stroke="#EFF1F3" stroke-width="2" stroke-linecap="round" stroke-linejoin="round"/>
<path d="M32 27C32 20.3726 26.6274 15 20 15C13.3726 15 8 20.3726 8 27C8 33.6274 13.3726 39 20 39" stroke="#EFF1F3" stroke-width="2" stroke-linecap="round" stroke-linejoin="round"/>
<path d="M14 32.5C14 36.0899 16.9101 39 20.5 39C24.0899 39 27 36.0899 27 32.5C27 28.9101 24.0899 26 20.5 26" stroke="#EFF1F3" stroke-width="2" stroke-linecap="round" stroke-linejoin="round"/>
<path d="M50.6 32.375V14H52.55V16.275C52.6833 15.925 52.8583 15.5917 53.075 15.275C53.2917 14.9417 53.55 14.6667 53.85 14.45C54.1667 14.2167 54.5083 14.05 54.875 13.95C55.2583 13.85 55.6417 13.8 56.025 13.8C56.4417 13.8 56.85 13.8583 57.25 13.975C57.6667 14.0917 58.0417 14.275 58.375 14.525C58.7083 14.775 58.9833 15.075 59.2 15.425C59.4333 15.775 59.6167 16.15 59.75 16.55C59.8833 16.9333 59.975 17.3333 60.025 17.75C60.075 18.1667 60.1 18.5833 60.1 19V22C60.1 22.4167 60.075 22.8333 60.025 23.25C59.975 23.6667 59.8833 24.075 59.75 24.475C59.6167 24.8583 59.4333 25.225 59.2 25.575C58.9833 25.925 58.7083 26.225 58.375 26.475C58.0417 26.725 57.6667 26.9083 57.25 27.025C56.85 27.1417 56.4417 27.2 56.025 27.2C55.6417 27.2 55.2583 27.15 54.875 27.05C54.5083 26.95 54.1667 26.7917 53.85 26.575C53.55 26.3417 53.2917 26.0667 53.075 25.75C52.8583 25.4167 52.6833 25.075 52.55 24.725V32.375H50.6ZM55.275 25.45C55.5583 25.45 55.8333 25.4167 56.1 25.35C56.3833 25.2833 56.6417 25.175 56.875 25.025C57.1083 24.8583 57.3083 24.6583 57.475 24.425C57.6583 24.1917 57.8 23.9417 57.9 23.675C58 23.4083 58.0667 23.1333 58.1 22.85C58.1333 22.5667 58.15 22.2833 58.15 22V19C58.15 18.7167 58.1333 18.4333 58.1 18.15C58.0667 17.8667 58 17.5917 57.9 17.325C57.8 17.0583 57.6583 16.8083 57.475 16.575C57.3083 16.3417 57.1083 16.15 56.875 16C56.6417 15.8333 56.3833 15.7167 56.1 15.65C55.8333 15.5833 55.5583 15.55 55.275 15.55C54.9917 15.55 54.7083 15.5833 54.425 15.65C54.1583 15.7167 53.9167 15.8333 53.7 16C53.4833 16.1667 53.2917 16.375 53.125 16.625C52.975 16.8583 52.8583 17.1083 52.775 17.375C52.6917 17.625 52.6333 17.8917 52.6 18.175C52.5667 18.4417 52.55 18.7167 52.55 19V22C52.55 22.2833 52.5667 22.5667 52.6 22.85C52.6333 23.1167 52.6917 23.3833 52.775 23.65C52.8583 23.9 52.975 24.15 53.125 24.4C53.2917 24.6333 53.4833 24.8333 53.7 25C53.9167 25.1667 54.1583 25.2833 54.425 25.35C54.7083 25.4167 54.9917 25.45 55.275 25.45ZM64.6 27V14H66.55V16.7C66.65 16.3333 66.7917 15.975 66.975 15.625C67.1583 15.275 67.3833 14.9583 67.65 14.675C67.9167 14.3917 68.2333 14.175 68.6 14.025C68.9667 13.875 69.3417 13.8 69.725 13.8C70.0417 13.8 70.35 13.8417 70.65 13.925C70.9667 13.9917 71.25 14.1167 71.5 14.3C71.75 14.4833 71.9583 14.7083 72.125 14.975C72.3083 15.225 72.4417 15.5 72.525 15.8C72.625 16.0833 72.6917 16.3833 72.725 16.7C72.7583 17 72.775 17.3083 72.775 17.625H70.825C70.825 17.375 70.8 17.1333 70.75 16.9C70.7167 16.65 70.6333 16.4167 70.5 16.2C70.3833 15.9833 70.2083 15.825 69.975 15.725C69.7583 15.6083 69.525 15.55 69.275 15.55C68.9417 15.55 68.6167 15.625 68.3 15.775C68 15.9083 67.7417 16.1 67.525 16.35C67.325 16.6 67.1583 16.8833 67.025 17.2C66.9083 17.5 66.8083 17.8167 66.725 18.15C66.6583 18.4667 66.6083 18.7917 66.575 19.125C66.5583 19.4583 66.55 19.7833 66.55 20.1V27H64.6ZM80.25 27.2C79.8 27.2 79.35 27.15 78.9 27.05C78.45 26.9667 78.0333 26.8167 77.65 26.6C77.2667 26.3833 76.9167 26.1083 76.6 25.775C76.3 25.425 76.0583 25.05 75.875 24.65C75.6917 24.2333 75.5667 23.8 75.5 23.35C75.4333 22.9 75.4 22.45 75.4 22V19C75.4 18.55 75.4333 18.1 75.5 17.65C75.5667 17.2 75.6917 16.775 75.875 16.375C76.0583 15.9583 76.3 15.5833 76.6 15.25C76.9167 14.9 77.2667 14.6167 77.65 14.4C78.05 14.1833 78.4667 14.0167 78.9 13.9C79.35 13.7833 79.8 13.725 80.25 13.725C80.7 13.725 81.1417 13.7833 81.575 13.9C82.025 14.0167 82.4417 14.1833 82.825 14.4C83.225 14.6167 83.575 14.9 83.875 15.25C84.1917 15.5833 84.4417 15.9583 84.625 16.375C84.8083 16.775 84.9333 17.2 85 17.65C85.0667 18.1 85.1 18.55 85.1 19V22C85.1 22.45 85.0667 22.9 85 23.35C84.9333 23.8 84.8083 24.2333 84.625 24.65C84.4417 25.05 84.1917 25.425 83.875 25.775C83.575 26.1083 83.2333 26.3833 82.85 26.6C82.4667 26.8167 82.05 26.9667 81.6 27.05C81.15 27.15 80.7 27.2 80.25 27.2ZM80.25 25.45C80.5333 25.45 80.8167 25.4167 81.1 25.35C81.3833 25.2833 81.6417 25.175 81.875 25.025C82.1083 24.8583 82.3083 24.6583 82.475 24.425C82.6583 24.1917 82.8 23.9417 82.9 23.675C83 23.4083 83.0667 23.1333 83.1 22.85C83.1333 22.5667 83.15 22.2833 83.15 22V19C83.15 18.7167 83.1333 18.4333 83.1 18.15C83.0667 17.8667 82.9917 17.5917 82.875 17.325C82.775 17.0417 82.6417 16.7833 82.475 16.55C82.3083 16.3167 82.1 16.125 81.85 15.975C81.6167 15.825 81.3583 15.7167 81.075 15.65C80.7917 15.5833 80.5 15.55 80.2 15.55C79.9167 15.55 79.6333 15.5917 79.35 15.675C79.0833 15.7417 78.8333 15.8583 78.6 16.025C78.3667 16.175 78.1667 16.3667 78 16.6C77.8333 16.8333 77.7 17.0833 77.6 17.35C77.5 17.6 77.4333 17.8667 77.4 18.15C77.3667 18.4333 77.35 18.7167 77.35 19V22C77.35 22.2833 77.3667 22.5667 77.4 22.85C77.4333 23.1333 77.5 23.4083 77.6 23.675C77.7 23.9417 77.8333 24.1917 78 24.425C78.1833 24.6583 78.3917 24.8583 78.625 25.025C78.8583 25.175 79.1167 25.2833 79.4 25.35C79.6833 25.4167 79.9667 25.45 80.25 25.45ZM88.375 27V25.25H91.95V15.75H88.725V14H93.9V25.25H97.125V27H88.375ZM92.75 11.8C92.5333 11.8 92.325 11.775 92.125 11.725C91.925 11.6583 91.75 11.55 91.6 11.4C91.45 11.25 91.3417 11.075 91.275 10.875C91.225 10.675 91.2 10.4667 91.2 10.25C91.2 10.0333 91.225 9.825 91.275 9.625C91.3417 9.425 91.45 9.25 91.6 9.1C91.75 8.95 91.925 8.84167 92.125 8.775C92.325 8.70833 92.5333 8.675 92.75 8.675C92.9667 8.675 93.175 8.70833 93.375 8.775C93.575 8.84167 93.75 8.95 93.9 9.1C94.05 9.25 94.1583 9.425 94.225 9.625C94.2917 9.825 94.325 10.0333 94.325 10.25C94.325 10.4667 94.2917 10.675 94.225 10.875C94.1583 11.075 94.05 11.25 93.9 11.4C93.75 11.55 93.575 11.6583 93.375 11.725C93.175 11.775 92.9667 11.8 92.75 11.8ZM100.6 19.375V17.625H109.9V19.375H100.6ZM117 27.2C116.583 27.2 116.175 27.1417 115.775 27.025C115.375 26.9083 115.017 26.725 114.7 26.475C114.4 26.2083 114.142 25.9 113.925 25.55C113.708 25.1833 113.533 24.8083 113.4 24.425C113.283 24.025 113.2 23.625 113.15 23.225C113.117 22.8083 113.1 22.4 113.1 22V14H115.05V22C115.05 22.2833 115.067 22.5667 115.1 22.85C115.133 23.1167 115.192 23.3833 115.275 23.65C115.358 23.9 115.475 24.1417 115.625 24.375C115.792 24.6083 115.983 24.8083 116.2 24.975C116.417 25.1417 116.658 25.2667 116.925 25.35C117.192 25.4167 117.467 25.45 117.75 25.45C118.033 25.45 118.308 25.4167 118.575 25.35C118.842 25.2667 119.083 25.1417 119.3 24.975C119.517 24.8083 119.7 24.6083 119.85 24.375C120.017 24.1417 120.142 23.9 120.225 23.65C120.308 23.3833 120.367 23.1167 120.4 22.85C120.433 22.5667 120.45 22.2833 120.45 22V14H122.4V27H120.45V24.725C120.317 25.075 120.142 25.4083 119.925 25.725C119.708 26.0417 119.442 26.3167 119.125 26.55C118.825 26.7833 118.483 26.95 118.1 27.05C117.733 27.15 117.367 27.2 117 27.2ZM125.875 27V25.25H129.45V15.75H126.225V14H131.4V25.25H134.625V27H125.875ZM130.25 11.8C130.033 11.8 129.825 11.775 129.625 11.725C129.425 11.6583 129.25 11.55 129.1 11.4C128.95 11.25 128.842 11.075 128.775 10.875C128.725 10.675 128.7 10.4667 128.7 10.25C128.7 10.0333 128.725 9.825 128.775 9.625C128.842 9.425 128.95 9.25 129.1 9.1C129.25 8.95 129.425 8.84167 129.625 8.775C129.825 8.70833 130.033 8.675 130.25 8.675C130.467 8.675 130.675 8.70833 130.875 8.775C131.075 8.84167 131.25 8.95 131.4 9.1C131.55 9.25 131.658 9.425 131.725 9.625C131.792 9.825 131.825 10.0333 131.825 10.25C131.825 10.4667 131.792 10.675 131.725 10.875C131.658 11.075 131.55 11.25 131.4 11.4C131.25 11.55 131.075 11.6583 130.875 11.725C130.675 11.775 130.467 11.8 130.25 11.8Z" fill="#73BFB0"/>
</svg>
