<svg width="162" height="40" viewBox="0 0 162 40" fill="none" xmlns="http://www.w3.org/2000/svg">
<path d="M1 20C1 30.4934 9.50659 39 20 39C30.4934 39 39 30.4934 39 20C39 9.50659 30.4934 1 20 1" stroke="#1A6FB6" stroke-width="2" stroke-linecap="round" stroke-linejoin="round"/>
<path d="M32 27C32 20.3726 26.6274 15 20 15C13.3726 15 8 20.3726 8 27C8 33.6274 13.3726 39 20 39" stroke="#1A6FB6" stroke-width="2" stroke-linecap="round" stroke-linejoin="round"/>
<path d="M14 32.5C14 36.0899 16.9101 39 20.5 39C24.0899 39 27 36.0899 27 32.5C27 28.9101 24.0899 26 20.5 26" stroke="#1A6FB6" stroke-width="2" stroke-linecap="round" stroke-linejoin="round"/>
<path d="M51.3 32.5V14.25H53.55V16.875H54L53.55 17.4C53.55 16.35 53.8917 15.525 54.575 14.925C55.275 14.3083 56.1917 14 57.325 14C58.7083 14 59.8083 14.4583 60.625 15.375C61.4583 16.275 61.875 17.5167 61.875 19.1V23.125C61.875 24.175 61.6833 25.0833 61.3 25.85C60.9333 26.6167 60.4083 27.2083 59.725 27.625C59.0583 28.0417 58.2583 28.25 57.325 28.25C56.2083 28.25 55.3 27.9417 54.6 27.325C53.9 26.7083 53.55 25.8833 53.55 24.85L54 25.375H53.5L53.55 28.5V32.5H51.3ZM56.575 26.3C57.525 26.3 58.2667 26.0167 58.8 25.45C59.35 24.8833 59.625 24.0667 59.625 23V19.25C59.625 18.1833 59.35 17.3667 58.8 16.8C58.2667 16.2333 57.525 15.95 56.575 15.95C55.6583 15.95 54.925 16.2417 54.375 16.825C53.825 17.4083 53.55 18.2167 53.55 19.25V23C53.55 24.0333 53.825 24.8417 54.375 25.425C54.925 26.0083 55.6583 26.3 56.575 26.3ZM66.7652 28V14.25H68.9652V16.875H69.4902L68.7652 18.5C68.7652 17.0167 69.0819 15.9 69.7152 15.15C70.3652 14.3833 71.3236 14 72.5902 14C74.0402 14 75.1902 14.4583 76.0402 15.375C76.9069 16.275 77.3402 17.5 77.3402 19.05V19.875H75.0902V19.25C75.0902 18.1667 74.8236 17.3417 74.2902 16.775C73.7736 16.1917 73.0319 15.9 72.0652 15.9C71.1152 15.9 70.3652 16.1917 69.8152 16.775C69.2819 17.3583 69.0152 18.1833 69.0152 19.25V28H66.7652ZM86.4805 28.2C85.3805 28.2 84.4305 27.9917 83.6305 27.575C82.8305 27.1583 82.2055 26.5583 81.7555 25.775C81.3221 24.975 81.1055 24.0333 81.1055 22.95V19.3C81.1055 18.2 81.3221 17.2583 81.7555 16.475C82.2055 15.6917 82.8305 15.0917 83.6305 14.675C84.4305 14.2583 85.3805 14.05 86.4805 14.05C87.5805 14.05 88.5305 14.2583 89.3305 14.675C90.1305 15.0917 90.7471 15.6917 91.1805 16.475C91.6305 17.2583 91.8555 18.1917 91.8555 19.275V22.95C91.8555 24.0333 91.6305 24.975 91.1805 25.775C90.7471 26.5583 90.1305 27.1583 89.3305 27.575C88.5305 27.9917 87.5805 28.2 86.4805 28.2ZM86.4805 26.2C87.4638 26.2 88.2305 25.925 88.7805 25.375C89.3305 24.825 89.6055 24.0167 89.6055 22.95V19.3C89.6055 18.2333 89.3305 17.425 88.7805 16.875C88.2305 16.325 87.4638 16.05 86.4805 16.05C85.5138 16.05 84.7471 16.325 84.1805 16.875C83.6305 17.425 83.3555 18.2333 83.3555 19.3V22.95C83.3555 24.0167 83.6305 24.825 84.1805 25.375C84.7471 25.925 85.5138 26.2 86.4805 26.2ZM96.0957 28V25.95H100.971V16.3H96.7207V14.25H103.221V25.95H107.846V28H96.0957ZM101.846 11.775C101.296 11.775 100.862 11.6333 100.546 11.35C100.229 11.0667 100.071 10.6833 100.071 10.2C100.071 9.7 100.229 9.30833 100.546 9.025C100.862 8.725 101.296 8.575 101.846 8.575C102.396 8.575 102.829 8.725 103.146 9.025C103.462 9.30833 103.621 9.7 103.621 10.2C103.621 10.6833 103.462 11.0667 103.146 11.35C102.829 11.6333 102.396 11.775 101.846 11.775ZM112.461 20.75V18.75H120.461V20.75H112.461ZM131.426 28.25C129.843 28.25 128.576 27.7833 127.626 26.85C126.676 25.9 126.201 24.6167 126.201 23V14.25H128.451V23C128.451 24.0333 128.718 24.8417 129.251 25.425C129.785 25.9917 130.51 26.275 131.426 26.275C132.36 26.275 133.093 25.9917 133.626 25.425C134.176 24.8417 134.451 24.0333 134.451 23V14.25H136.701V23C136.701 24.6167 136.218 25.9 135.251 26.85C134.285 27.7833 133.01 28.25 131.426 28.25ZM141.066 28V25.95H145.941V16.3H141.691V14.25H148.191V25.95H152.816V28H141.066ZM146.816 11.775C146.266 11.775 145.833 11.6333 145.516 11.35C145.2 11.0667 145.041 10.6833 145.041 10.2C145.041 9.7 145.2 9.30833 145.516 9.025C145.833 8.725 146.266 8.575 146.816 8.575C147.366 8.575 147.8 8.725 148.116 9.025C148.433 9.30833 148.591 9.7 148.591 10.2C148.591 10.6833 148.433 11.0667 148.116 11.35C147.8 11.6333 147.366 11.775 146.816 11.775Z" fill="#1A6FB6"/>
</svg>
