<svg width="138" height="40" viewBox="0 0 138 40" fill="none" xmlns="http://www.w3.org/2000/svg">
<path d="M1 20C1 30.4934 9.50659 39 20 39C30.4934 39 39 30.4934 39 20C39 9.50659 30.4934 1 20 1" stroke="#357266" stroke-width="2" stroke-linecap="round" stroke-linejoin="round"/>
<path d="M32 27C32 20.3726 26.6274 15 20 15C13.3726 15 8 20.3726 8 27C8 33.6274 13.3726 39 20 39" stroke="#357266" stroke-width="2" stroke-linecap="round" stroke-linejoin="round"/>
<path d="M14 32.5C14 36.0899 16.9101 39 20.5 39C24.0899 39 27 36.0899 27 32.5C27 28.9101 24.0899 26 20.5 26" stroke="#357266" stroke-width="2" stroke-linecap="round" stroke-linejoin="round"/>
<path d="M50.5 32.125H52.5V24.725C52.6333 25.0917 52.8167 25.4333 53.05 25.75C53.2833 26.0667 53.55 26.3417 53.85 26.575C54.1667 26.7917 54.5167 26.95 54.9 27.05C55.2833 27.15 55.6667 27.2 56.05 27.2C56.4667 27.2 56.8833 27.1417 57.3 27.025C57.7167 26.925 58.0917 26.75 58.425 26.5C58.7583 26.25 59.0417 25.95 59.275 25.6C59.525 25.2333 59.7167 24.8583 59.85 24.475C59.9833 24.075 60.075 23.6667 60.125 23.25C60.175 22.8333 60.2 22.4167 60.2 22V18.75C60.2 18.3333 60.175 17.9167 60.125 17.5C60.075 17.0833 59.9833 16.675 59.85 16.275C59.7167 15.875 59.525 15.5 59.275 15.15C59.0417 14.8 58.7583 14.5 58.425 14.25C58.0917 14 57.7167 13.825 57.3 13.725C56.8833 13.6083 56.4667 13.55 56.05 13.55C55.6667 13.55 55.2833 13.6 54.9 13.7C54.5167 13.7833 54.1667 13.9417 53.85 14.175C53.55 14.4083 53.2833 14.6833 53.05 15C52.8167 15.3167 52.6333 15.6583 52.5 16.025V13.75H50.5V32.125ZM55.275 25.4C54.9917 25.4 54.7167 25.3667 54.45 25.3C54.1833 25.2333 53.9333 25.125 53.7 24.975C53.4833 24.8083 53.2917 24.6083 53.125 24.375C52.9583 24.1417 52.825 23.9 52.725 23.65C52.6417 23.3833 52.5833 23.1083 52.55 22.825C52.5167 22.5417 52.5 22.2667 52.5 22V18.75C52.5 18.4667 52.5167 18.1917 52.55 17.925C52.5833 17.6417 52.6417 17.375 52.725 17.125C52.825 16.8583 52.9583 16.6083 53.125 16.375C53.2917 16.1417 53.4833 15.95 53.7 15.8C53.9333 15.6333 54.1833 15.5167 54.45 15.45C54.7167 15.3833 54.9917 15.35 55.275 15.35C55.5583 15.35 55.8417 15.3833 56.125 15.45C56.4083 15.5167 56.6667 15.625 56.9 15.775C57.1333 15.925 57.3333 16.1167 57.5 16.35C57.6833 16.5667 57.825 16.8083 57.925 17.075C58.0417 17.3417 58.1167 17.6167 58.15 17.9C58.1833 18.1833 58.2 18.4667 58.2 18.75V22C58.2 22.2833 58.1833 22.5667 58.15 22.85C58.1167 23.1333 58.0417 23.4083 57.925 23.675C57.825 23.925 57.6833 24.1667 57.5 24.4C57.3333 24.6333 57.1333 24.825 56.9 24.975C56.6667 25.125 56.4083 25.2333 56.125 25.3C55.8417 25.3667 55.5583 25.4 55.275 25.4ZM64.5 27H66.5V19.975C66.5 19.6417 66.5083 19.3083 66.525 18.975C66.5583 18.6417 66.6083 18.3083 66.675 17.975C66.7583 17.6417 66.8667 17.325 67 17.025C67.1333 16.7083 67.3083 16.425 67.525 16.175C67.7417 15.9083 68 15.7083 68.3 15.575C68.6167 15.425 68.9417 15.35 69.275 15.35C69.525 15.35 69.7667 15.4083 70 15.525C70.2333 15.625 70.4167 15.775 70.55 15.975C70.6833 16.175 70.7667 16.4 70.8 16.65C70.85 16.9 70.875 17.15 70.875 17.4H72.875C72.875 17.0833 72.8583 16.775 72.825 16.475C72.7917 16.1583 72.725 15.85 72.625 15.55C72.525 15.25 72.3833 14.975 72.2 14.725C72.0333 14.4583 71.825 14.2333 71.575 14.05C71.325 13.8667 71.0417 13.7417 70.725 13.675C70.425 13.5917 70.1167 13.55 69.8 13.55C69.3833 13.55 68.975 13.6417 68.575 13.825C68.1917 14.0083 67.8583 14.2667 67.575 14.6C67.3083 14.9167 67.0833 15.275 66.9 15.675C66.7333 16.0583 66.6 16.4583 66.5 16.875V13.75H64.5V27ZM80.25 27.2C80.7 27.2 81.15 27.1583 81.6 27.075C82.05 26.9917 82.475 26.8417 82.875 26.625C83.275 26.3917 83.6333 26.1083 83.95 25.775C84.2667 25.4417 84.5167 25.0667 84.7 24.65C84.8833 24.2333 85.0083 23.8 85.075 23.35C85.1583 22.9 85.2 22.45 85.2 22V18.75C85.2 18.3 85.1583 17.85 85.075 17.4C85.0083 16.95 84.8833 16.5167 84.7 16.1C84.5167 15.6833 84.2667 15.3083 83.95 14.975C83.6333 14.625 83.275 14.3417 82.875 14.125C82.475 13.9083 82.05 13.7583 81.6 13.675C81.15 13.5917 80.7 13.55 80.25 13.55C79.8 13.55 79.35 13.5917 78.9 13.675C78.45 13.7583 78.025 13.9083 77.625 14.125C77.225 14.3417 76.8667 14.625 76.55 14.975C76.25 15.3083 76 15.6833 75.8 16.1C75.6167 16.5167 75.4833 16.95 75.4 17.4C75.3333 17.85 75.3 18.3 75.3 18.75V22C75.3 22.45 75.3333 22.9 75.4 23.35C75.4833 23.8 75.6167 24.2333 75.8 24.65C76 25.0667 76.25 25.4417 76.55 25.775C76.8667 26.1083 77.225 26.3917 77.625 26.625C78.025 26.8417 78.45 26.9917 78.9 27.075C79.35 27.1583 79.8 27.2 80.25 27.2ZM80.25 25.4C79.9667 25.4 79.6833 25.3667 79.4 25.3C79.1167 25.2333 78.8583 25.125 78.625 24.975C78.3917 24.825 78.1833 24.6417 78 24.425C77.8167 24.1917 77.675 23.9417 77.575 23.675C77.475 23.4083 77.4 23.1333 77.35 22.85C77.3167 22.5667 77.3 22.2833 77.3 22V18.75C77.3 18.4667 77.3167 18.1833 77.35 17.9C77.4 17.6167 77.475 17.3417 77.575 17.075C77.675 16.8083 77.8167 16.5667 78 16.35C78.1833 16.1167 78.3917 15.925 78.625 15.775C78.8583 15.6083 79.1167 15.5 79.4 15.45C79.6833 15.3833 79.9667 15.35 80.25 15.35C80.5333 15.35 80.8167 15.3833 81.1 15.45C81.3833 15.5 81.6417 15.6083 81.875 15.775C82.125 15.925 82.3333 16.1167 82.5 16.35C82.6833 16.5667 82.825 16.8083 82.925 17.075C83.0417 17.3417 83.1167 17.6167 83.15 17.9C83.1833 18.1833 83.2 18.4667 83.2 18.75V22C83.2 22.2833 83.1833 22.5667 83.15 22.85C83.1167 23.1333 83.0417 23.4083 82.925 23.675C82.825 23.9417 82.6833 24.1917 82.5 24.425C82.3333 24.6417 82.125 24.825 81.875 24.975C81.6417 25.125 81.3833 25.2333 81.1 25.3C80.8167 25.3667 80.5333 25.4 80.25 25.4ZM88.375 27H97.125V25.2H93.925V13.75H88.725V15.55H91.925V25.2H88.375V27ZM92.75 11.425C92.9667 11.425 93.175 11.4 93.375 11.35C93.575 11.2833 93.75 11.175 93.9 11.025C94.05 10.875 94.1583 10.7 94.225 10.5C94.2917 10.2833 94.325 10.075 94.325 9.875C94.325 9.65833 94.2917 9.45 94.225 9.25C94.1583 9.05 94.05 8.875 93.9 8.725C93.75 8.575 93.575 8.46667 93.375 8.4C93.175 8.33333 92.9667 8.3 92.75 8.3C92.55 8.3 92.3417 8.33333 92.125 8.4C91.925 8.46667 91.75 8.575 91.6 8.725C91.45 8.875 91.3417 9.05 91.275 9.25C91.225 9.45 91.2 9.65833 91.2 9.875C91.2 10.075 91.225 10.2833 91.275 10.5C91.3417 10.7 91.45 10.875 91.6 11.025C91.75 11.175 91.925 11.2833 92.125 11.35C92.3417 11.4 92.55 11.425 92.75 11.425ZM100.5 19.4H110V17.6H100.5V19.4ZM116.975 27.2C117.358 27.2 117.733 27.15 118.1 27.05C118.483 26.95 118.833 26.7917 119.15 26.575C119.467 26.3417 119.733 26.0667 119.95 25.75C120.183 25.4167 120.367 25.075 120.5 24.725V27H122.5V13.75H120.5V22C120.5 22.2667 120.483 22.5417 120.45 22.825C120.417 23.0917 120.35 23.3583 120.25 23.625C120.167 23.8917 120.042 24.1417 119.875 24.375C119.725 24.5917 119.533 24.7833 119.3 24.95C119.083 25.1167 118.842 25.2333 118.575 25.3C118.308 25.3667 118.033 25.4 117.75 25.4C117.483 25.4 117.208 25.3667 116.925 25.3C116.658 25.2333 116.408 25.1167 116.175 24.95C115.958 24.7833 115.767 24.5917 115.6 24.375C115.45 24.1417 115.325 23.8917 115.225 23.625C115.142 23.3583 115.083 23.0917 115.05 22.825C115.017 22.5417 115 22.2667 115 22V13.75H113V22C113 22.4167 113.025 22.8333 113.075 23.25C113.125 23.65 113.208 24.05 113.325 24.45C113.458 24.8333 113.633 25.2 113.85 25.55C114.067 25.9 114.333 26.2083 114.65 26.475C114.983 26.725 115.35 26.9083 115.75 27.025C116.15 27.1417 116.558 27.2 116.975 27.2ZM125.875 27H134.625V25.2H131.425V13.75H126.225V15.55H129.425V25.2H125.875V27ZM130.25 11.425C130.467 11.425 130.675 11.4 130.875 11.35C131.075 11.2833 131.25 11.175 131.4 11.025C131.55 10.875 131.658 10.7 131.725 10.5C131.792 10.2833 131.825 10.075 131.825 9.875C131.825 9.65833 131.792 9.45 131.725 9.25C131.658 9.05 131.55 8.875 131.4 8.725C131.25 8.575 131.075 8.46667 130.875 8.4C130.675 8.33333 130.467 8.3 130.25 8.3C130.05 8.3 129.842 8.33333 129.625 8.4C129.425 8.46667 129.25 8.575 129.1 8.725C128.95 8.875 128.842 9.05 128.775 9.25C128.725 9.45 128.7 9.65833 128.7 9.875C128.7 10.075 128.725 10.2833 128.775 10.5C128.842 10.7 128.95 10.875 129.1 11.025C129.25 11.175 129.425 11.2833 129.625 11.35C129.842 11.4 130.05 11.425 130.25 11.425Z" fill="#223843"/>
</svg>
