<svg width="246" height="246" viewBox="0 0 246 246" fill="none" xmlns="http://www.w3.org/2000/svg">
<path d="M7 123.069C7 187.173 58.9661 239.139 123.069 239.139C187.173 239.139 239.139 187.173 239.139 123.069C239.139 58.9661 187.173 7 123.069 7" stroke="#73BFB0" stroke-width="12.2178" stroke-linecap="round" stroke-linejoin="round"/>
<path d="M196.377 165.832C196.377 125.346 163.556 92.5248 123.069 92.5248C82.5831 92.5248 49.7624 125.346 49.7624 165.832C49.7624 206.318 82.5831 239.139 123.069 239.139" stroke="#73BFB0" stroke-width="12.2178" stroke-linecap="round" stroke-linejoin="round"/>
<path d="M86.416 199.431C86.416 221.361 104.194 239.139 126.124 239.139C148.054 239.139 165.832 221.361 165.832 199.431C165.832 177.501 148.054 159.723 126.124 159.723" stroke="#73BFB0" stroke-width="12.2178" stroke-linecap="round" stroke-linejoin="round"/>
</svg>
